<svg xmlns="http://www.w3.org/2000/svg" xmlns:svg="http://www.w3.org/2000/svg" id="svg2" width="481.125" height="266.045" version="1.1" viewBox="0 0 481.125 266.045" xml:space="preserve"><metadata id="metadata8"/><defs id="defs6"><clipPath id="clipPath18" clipPathUnits="userSpaceOnUse"><path id="path16" d="M 0,841.89 H 595.28 V 0 H 0 Z"/></clipPath></defs><g id="g10" transform="matrix(1.3333333,0,0,-1.3333333,-155.62133,694.12132)"><g id="g12"><g id="g14" clip-path="url(#clipPath18)"><g id="g20" transform="translate(130.6373,369.9872)"><path style="fill:#37419f;fill-opacity:1;fill-rule:nonzero;stroke:none" id="path22" d="m 0,0 c -0.363,-13.534 9.131,-15.978 9.131,-15.978 0,0 9.13,20.543 31.956,20.543 22.827,0 30.245,-21.685 30.245,-21.685 H 222.557 V 11.984 H 13.125 C 13.125,11.984 0.291,10.839 0,0"/></g><g id="g24" transform="translate(169.8043,327.4402)"><path style="fill:#37419f;fill-opacity:1;fill-rule:nonzero;stroke:none" id="path26" d="m 0,0 c -9.774,0 -17.698,7.924 -17.698,17.698 0,9.774 7.924,17.698 17.698,17.698 9.774,0 17.698,-7.924 17.698,-17.698 C 17.698,7.924 9.774,0 0,0 m 0,41.779 c -13.299,0 -24.081,-10.782 -24.081,-24.081 0,-13.3 10.782,-24.081 24.081,-24.081 13.299,0 24.081,10.781 24.081,24.081 0,13.299 -10.782,24.081 -24.081,24.081"/></g><g id="g28" transform="translate(414.0941,327.4402)"><path style="fill:#37419f;fill-opacity:1;fill-rule:nonzero;stroke:none" id="path30" d="m 0,0 c -9.774,0 -17.698,7.924 -17.698,17.698 0,9.774 7.924,17.698 17.698,17.698 9.774,0 17.698,-7.924 17.698,-17.698 C 17.698,7.924 9.774,0 0,0 m 0,41.779 c -13.299,0 -24.081,-10.782 -24.081,-24.081 0,-13.3 10.782,-24.081 24.081,-24.081 13.299,0 24.081,10.781 24.081,24.081 0,13.299 -10.782,24.081 -24.081,24.081"/></g><g id="g32" transform="translate(469.7267,366.3176)"><path style="fill:#37419f;fill-opacity:1;fill-rule:nonzero;stroke:none" id="path34" d="m 0,0 c 0,-4.062 -0.87,-4.932 -4.352,-4.932 -3.482,0 -4.062,2.901 -4.062,2.901 v 8.124 c 0,7.833 4.642,6.673 4.642,6.673 C -0.29,12.766 0,8.704 0,8.704 Z m -23.21,55.415 h -60.638 c -8.414,0 -7.253,10.445 -7.253,10.445 v 26.982 c 0,8.414 4.932,6.963 4.932,6.963 h 35.106 c 13.346,0 13.346,-4.352 13.346,-4.352 0,0 16.247,-26.692 18.858,-33.655 2.612,-6.963 -4.351,-6.383 -4.351,-6.383 M 2.321,50.483 c -4.352,6.383 -30.754,49.612 -30.754,49.612 0,0 -2.031,8.124 -16.537,8.124 h -54.545 c 0,0 -6.093,1.74 -6.093,-6.673 V 43.52 -4.352 c 0,0 -1.45,-6.383 4.933,-6.383 h 16.247 c 0,0 7.253,18.859 30.464,18.859 23.21,0 28.896,-19.149 28.896,-19.149 H -0.87 c 0,0 8.703,3.192 8.703,10.445 v 38.297 c 0,0 -1.16,6.383 -5.512,12.766"/></g><path style="fill:#37419f;fill-opacity:1;fill-rule:nonzero;stroke:none" id="path36" d="M 352.956,520.591 H 116.716 V 391.344 h 236.24 z"/></g></g></g></svg>